<svg id="Layer_3" enable-background="new 0 0 64 64" height="512" viewBox="0 0 64 64" width="512" xmlns="http://www.w3.org/2000/svg"><g><path d="m42 17h2c0-6.617-5.383-12-12-12v2c5.514 0 10 4.486 10 10z"/><path d="m63 30c0-6.617-5.383-12-12-12-1.051 0-2.078.148-3.076.412.036-.469.076-.938.076-1.412 0-8.822-7.178-16-16-16s-16 7.178-16 16c0 .474.04.943.076 1.412-.998-.265-2.026-.412-3.076-.412-6.617 0-12 5.383-12 12 0 3.459 1.468 6.777 4.027 9.103l6.627 6.025-2.454 3.272c-.228.303-.264.708-.095 1.047s.516.553.895.553h2v13h2v-13h2c.379 0 .725-.214.895-.553s.133-.744-.095-1.047l-2.454-3.272 6.627-6.025c1.823-1.658 3.079-3.804 3.659-6.165l5.901 5.115-3.241 3.241c-.286.286-.372.716-.217 1.09.156.372.521.616.925.616h3v.751c0 2.626-.621 5.255-1.795 7.603l-.199.398c-1.312 2.624-2.006 5.562-2.006 8.497v2.751h2v-2.751c0-2.626.621-5.255 1.795-7.603l.199-.398c1.312-2.624 2.006-5.562 2.006-8.497v-.751h3c.404 0 .769-.244.924-.617.155-.374.069-.804-.217-1.09l-3.241-3.241 5.902-5.115c.581 2.361 1.838 4.511 3.658 6.166l6.627 6.025-2.453 3.272c-.228.303-.264.708-.095 1.047s.516.553.895.553h2v13h2v-13h2c.379 0 .725-.214.895-.553s.133-.744-.095-1.047l-2.454-3.272 6.627-6.025c2.559-2.326 4.027-5.644 4.027-9.103zm-31-27c7.72 0 14 6.28 14 14 0 4.793-2.078 9.344-5.7 12.483l-8.3 7.194-8.3-7.193c-3.622-3.14-5.7-7.691-5.7-12.484 0-7.72 6.28-14 14-14zm-20 45 1-1.333 1 1.333zm7.627-10.376-6.627 6.024-6.627-6.025c-2.144-1.948-3.373-4.727-3.373-7.623 0-5.514 4.486-10 10-10 1.161 0 2.289.207 3.368.594.793 4.008 2.882 7.679 6.023 10.401l.499.432c-.334 2.383-1.473 4.569-3.263 6.197zm10.787 3.376 1.586-1.586 1.586 1.586zm19.586 7 1-1.333 1 1.333zm1-4.352-6.627-6.025c-1.786-1.624-2.93-3.814-3.263-6.195l.5-.433c3.141-2.722 5.23-6.393 6.023-10.401 1.077-.387 2.205-.594 3.367-.594 5.514 0 10 4.486 10 10 0 2.896-1.229 5.675-3.373 7.624z"/><path d="m5 30h2c0-3.309 2.691-6 6-6v-2c-4.411 0-8 3.589-8 8z"/><path d="m51 22v2c3.309 0 6 2.691 6 6h2c0-4.411-3.589-8-8-8z"/></g></svg>